<mxfile host="app.diagrams.net" modified="2023-11-23T09:15:36.029Z" agent="Mozilla/5.0 (Windows NT 10.0; Win64; x64) AppleWebKit/537.36 (KHTML, like Gecko) Chrome/119.0.0.0 Safari/537.36" version="22.1.3" etag="H2hoH_icNWwb-yLGgTlv" type="github">
  <diagram name="Page-1" id="XOYa-KXAAyGbo1f0Gsmk">
    <mxGraphModel>
      <root>
        <mxCell id="0" />
        <mxCell id="1" parent="0" />
      </root>
    </mxGraphModel>
  </diagram>
</mxfile>
